HIERARCHY
ROOT hip
{
  OFFSET 0 0 0
  CHANNELS 6 Xposition Yposition Zposition Zrotation Yrotation Xrotation
  JOINT abdomen
  {
    OFFSET 0 20.6881 -0.73152
    CHANNELS 3 Zrotation Xrotation Yrotation
    JOINT chest
    {
      OFFSET 0 11.7043 -0.48768
      CHANNELS 3 Zrotation Xrotation Yrotation
      JOINT neck
      {
        OFFSET 0 22.1894 -2.19456
        CHANNELS 3 Zrotation Xrotation Yrotation
        JOINT head
        {
          OFFSET -0.24384 7.07133 1.2192
          CHANNELS 3 Zrotation Xrotation Yrotation
          JOINT leftEye
          {
            OFFSET 4.14528 8.04674 8.04672
            CHANNELS 3 Zrotation Xrotation Yrotation
            End Site
            {
              OFFSET 1 0 0
            }
          }
          JOINT rightEye
          {
            OFFSET -3.6576 8.04674 8.04672
            CHANNELS 3 Zrotation Xrotation Yrotation
            End Site
            {
              OFFSET 1 0 0
            }
          }
        }
      }
      JOINT rCollar
      {
        OFFSET -2.68224 19.2634 -4.8768
        CHANNELS 3 Zrotation Xrotation Yrotation
        JOINT rShldr
        {
          OFFSET -8.77824 -1.95073 1.46304
          CHANNELS 3 Zrotation Xrotation Yrotation
          JOINT rForeArm
          {
            OFFSET -28.1742 -1.7115 0.48768
            CHANNELS 3 Zrotation Xrotation Yrotation
            JOINT rHand
            {
              OFFSET -22.5879 0.773209 7.07136
              CHANNELS 3 Zrotation Xrotation Yrotation
              JOINT rThumb1
              {
                OFFSET -1.2192 -0.487915 3.41376
                CHANNELS 3 Zrotation Xrotation Yrotation
                JOINT rThumb2
                {
                  OFFSET -3.37035 -0.52449 3.41376
                  CHANNELS 3 Zrotation Xrotation Yrotation
                  End Site
                  {
                    OFFSET -1.78271 -1.18214 1.43049
                  }
                }
              }
              JOINT rIndex1
              {
                OFFSET -7.75947 0.938293 5.60832
                CHANNELS 3 Zrotation Xrotation Yrotation
                JOINT rIndex2
                {
                  OFFSET -2.54057 -0.884171 1.56538
                  CHANNELS 3 Zrotation Xrotation Yrotation
                  End Site
                  {
                    OFFSET -1.62519 -0.234802 1.16502
                  }
                }
              }
              JOINT rMid1
              {
                OFFSET -8.24714 1.18213 3.41376
                CHANNELS 3 Zrotation Xrotation Yrotation
                JOINT rMid2
                {
                  OFFSET -3.10165 -0.590103 1.0647
                  CHANNELS 3 Zrotation Xrotation Yrotation
                  End Site
                  {
                    OFFSET -2.48547 -0.328903 0.83742
                  }
                }
              }
              JOINT rRing1
              {
                OFFSET -8.82822 0.546677 1.51678
                CHANNELS 3 Zrotation Xrotation Yrotation
                JOINT rRing2
                {
                  OFFSET -2.60934 -0.819778 -0.0198488
                  CHANNELS 3 Zrotation Xrotation Yrotation
                  End Site
                  {
                    OFFSET -2.33842 -0.294052 0.168128
                  }
                }
              }
              JOINT rPinky1
              {
                OFFSET -8.27202 -0.0477905 -0.4584
                CHANNELS 3 Zrotation Xrotation Yrotation
                JOINT rPinky2
                {
                  OFFSET -1.82734 -0.647385 -0.700984
                  CHANNELS 3 Zrotation Xrotation Yrotation
                  End Site
                  {
                    OFFSET -1.69225 -0.51767 -0.607171
                  }
                }
              }
            }
          }
        }
      }
      JOINT lCollar
      {
        OFFSET 2.68224 19.2634 -4.8768
        CHANNELS 3 Zrotation Xrotation Yrotation
        JOINT lShldr
        {
          OFFSET 8.77824 -1.95073 1.46304
          CHANNELS 3 Zrotation Xrotation Yrotation
          JOINT lForeArm
          {
            OFFSET 28.1742 -1.7115 0.48768
            CHANNELS 3 Zrotation Xrotation Yrotation
            JOINT lHand
            {
              OFFSET 22.5879 0.773209 7.07136
              CHANNELS 3 Zrotation Xrotation Yrotation
              JOINT lThumb1
              {
                OFFSET 1.2192 -0.487915 3.41376
                CHANNELS 3 Zrotation Xrotation Yrotation
                JOINT lThumb2
                {
                  OFFSET 3.37035 -0.52449 3.41376
                  CHANNELS 3 Zrotation Xrotation Yrotation
                  End Site
                  {
                    OFFSET 1.78271 -1.18214 1.43049
                  }
                }
              }
              JOINT lIndex1
              {
                OFFSET 7.75947 0.938293 5.60832
                CHANNELS 3 Zrotation Xrotation Yrotation
                JOINT lIndex2
                {
                  OFFSET 2.54057 -0.884171 1.56538
                  CHANNELS 3 Zrotation Xrotation Yrotation
                  End Site
                  {
                    OFFSET 1.62519 -0.234802 1.16502
                  }
                }
              }
              JOINT lMid1
              {
                OFFSET 8.24714 1.18213 3.41376
                CHANNELS 3 Zrotation Xrotation Yrotation
                JOINT lMid2
                {
                  OFFSET 3.10165 -0.590103 1.0647
                  CHANNELS 3 Zrotation Xrotation Yrotation
                  End Site
                  {
                    OFFSET 2.48547 -0.328903 0.83742
                  }
                }
              }
              JOINT lRing1
              {
                OFFSET 8.82822 0.546677 1.51678
                CHANNELS 3 Zrotation Xrotation Yrotation
                JOINT lRing2
                {
                  OFFSET 2.60934 -0.819778 -0.0198488
                  CHANNELS 3 Zrotation Xrotation Yrotation
                  End Site
                  {
                    OFFSET 2.33842 -0.294052 0.168128
                  }
                }
              }
              JOINT lPinky1
              {
                OFFSET 8.27202 -0.0477905 -0.4584
                CHANNELS 3 Zrotation Xrotation Yrotation
                JOINT lPinky2
                {
                  OFFSET 1.82734 -0.647385 -0.700984
                  CHANNELS 3 Zrotation Xrotation Yrotation
                  End Site
                  {
                    OFFSET 1.69225 -0.51767 -0.607171
                  }
                }
              }
            }
          }
        }
      }
    }
  }
  JOINT rButtock
  {
    OFFSET -8.77824 4.35084 1.2192
    CHANNELS 3 Zrotation Xrotation Yrotation
    JOINT rThigh
    {
      OFFSET 0 -1.70687 -2.19456
      CHANNELS 3 Zrotation Xrotation Yrotation
      JOINT rShin
      {
        OFFSET 0 -36.8199 0.73152
        CHANNELS 3 Zrotation Xrotation Yrotation
        JOINT rFoot
        {
          OFFSET 0.73152 -45.1104 -5.12064
          CHANNELS 3 Zrotation Xrotation Yrotation
          End Site
          {
            OFFSET -1.1221 -3.69964 12.103
          }
        }
      }
    }
  }
  JOINT lButtock
  {
    OFFSET 8.77824 4.35084 1.2192
    CHANNELS 3 Zrotation Xrotation Yrotation
    JOINT lThigh
    {
      OFFSET 0 -1.70687 -2.19456
      CHANNELS 3 Zrotation Xrotation Yrotation
      JOINT lShin
      {
        OFFSET 0 -36.8199 0.73152
        CHANNELS 3 Zrotation Xrotation Yrotation
        JOINT lFoot
        {
          OFFSET -0.73152 -45.1104 -5.12064
          CHANNELS 3 Zrotation Xrotation Yrotation
          End Site
          {
            OFFSET 1.1221 -3.69964 12.103
          }
        }
      }
    }
  }
}
MOTION
Frames:	6
Frame Time:	0.00833333
39.4123 84.9057 -95.7862 0.0 0.0 0.0 -0.143209 -0.00270235 -0.00414763 -0.0395947 -0.00448416 -0.00686043 -1.1125e-15 0.0 1.70831e-17 -3.26442e-15 3.18055e-15 5.59082e-17 -0.0 0.0 0.0 -0.0 0.0 0.0 -4.98296e-16 1.55301e-18 1.49089e-16 -9.57525e-15 1.11816e-16 1.19271e-15 -1.95853e-13 6.20208e-14 -6.36111e-15 -2.26824e-12 -4.85283e-14 3.81667e-14 -5.34871e-12 2.5415e-14 8.90555e-14 -9.2407e-12 4.13472e-14 1.4233e-13 -5.34134e-12 2.38542e-14 8.26944e-14 7.73091 5.47488 0.417314 -5.3492e-12 2.51463e-14 8.90555e-14 2.90554 0.965183 0.102902 -5.34059e-12 2.54444e-14 8.5875e-14 10.2786 0.731801 0.0259123 -5.35327e-12 2.62396e-14 8.90555e-14 2.22167 -0.733487 -0.20892 -5.95056e-16 1.55301e-18 -1.49089e-16 -1.34972e-14 -2.67117e-16 -7.95139e-16 -2.01965e-13 -5.86415e-14 1.90833e-14 -2.26584e-12 6.13748e-14 2.8625e-14 -5.35174e-12 9.21872e-15 8.5875e-14 -9.23116e-12 1.59028e-14 1.51076e-13 -5.35566e-12 1.03368e-14 9.22361e-14 -7.73091 5.47488 -0.417314 -5.35123e-12 9.44227e-15 8.5875e-14 -2.90554 0.965183 -0.102902 -5.35616e-12 8.84592e-15 8.50798e-14 -10.2786 0.731801 -0.0259123 -5.34433e-12 1.35174e-14 8.26944e-14 -2.22167 -0.733487 0.20892 -2.03217e-16 0.0 -3.88251e-19 0.33125 -2.90286 -0.0343705 -0.0059986 -0.292943 -0.0527708 -0.439404 3.19624 0.113629 2.03217e-16 0.0 3.88251e-19 -0.551066 -3.50685 0.0483543 0.00427638 0.801062 0.0368126 0.443212 2.70625 -0.1044
38.2773 81.5233 -97.2535 2.4588 -13.389 6.5678 1.409 4.70152 -0.444999 0.342398 -0.16183 -0.0749448 -1.00279 0.639818 1.01466 0.923172 -11.3961 2.60117 -0.0 0.0 0.0 -0.0 0.0 0.0 -9.27371e-15 -3.29449e-14 -3.90499e-14 -6.03258 7.55361 -5.77901 -3.12094 -1.25288 5.0394 0.0807826 -6.31573 -0.868301 4.35842e-11 6.2433e-11 -4.02309e-10 8.14888e-11 1.09985e-10 -6.94377e-10 4.35916e-11 6.2431e-11 -4.02319e-10 7.73091 5.47488 0.417314 4.35844e-11 6.24306e-11 -4.02312e-10 2.90554 0.965183 0.102902 4.35932e-11 6.24312e-11 -4.02314e-10 10.2786 0.731801 0.0259123 4.35802e-11 6.24311e-11 -4.02311e-10 2.22167 -0.733487 -0.20892 -9.35206e-15 -3.29499e-14 -3.93322e-14 0.298193 2.30618 10.9767 3.22526 -1.31133 -5.19257 -0.0926669 6.77276 -0.928153 1.13593e-10 -3.48608e-11 -2.20369e-10 1.91544e-10 -6.13555e-11 -3.83527e-10 1.13588e-10 -3.48613e-11 -2.20363e-10 -7.73091 5.47488 -0.417314 1.13593e-10 -3.48626e-11 -2.2037e-10 -2.90554 0.965183 -0.102902 1.13588e-10 -3.48631e-11 -2.2037e-10 -10.2786 0.731801 -0.0259123 1.13602e-10 -3.48588e-11 -2.20375e-10 -2.22167 -0.733487 0.20892 -2.03217e-16 0.0 -3.88251e-19 2.67817 -11.0552 0.585917 0.0418319 10.8055 0.139571 -1.2518 -0.81891 -7.38205 2.03217e-16 0.0 3.88251e-19 1.82678 -14.883 1.38412 -0.00200224 18.6586 -0.206239 0.739308 0.0762884 2.14856
38.1919 81.5189 -97.2497 2.2496 -13.4208 6.5854 3.13189 9.66647 -0.928703 0.747739 -0.334366 -0.148776 -2.08053 1.30741 2.08994 3.11093 -23.319 5.71582 -0.0 0.0 0.0 -0.0 0.0 0.0 -2.11974e-14 -6.87736e-14 -8.10576e-14 -10.6678 15.3393 -12.1837 -6.18881 -2.54924 10.3863 -0.0471736 -13.0136 -1.82568 1.09961e-10 1.54463e-10 -8.16911e-10 2.02509e-10 2.71436e-10 -1.40964e-09 1.09968e-10 1.5446e-10 -8.16925e-10 7.73091 5.47488 0.417314 1.09962e-10 1.54458e-10 -8.16917e-10 2.90554 0.965183 0.102902 1.09971e-10 1.54459e-10 -8.16918e-10 10.2786 0.731801 0.0259123 1.09957e-10 1.54458e-10 -8.16915e-10 2.22167 -0.733487 -0.20892 -2.12569e-14 -6.87839e-14 -8.13216e-14 -0.396273 4.5426 22.6217 6.37981 -2.66304 -10.6942 0.0543644 13.88 -1.94707 2.24412e-10 -8.31031e-11 -5.0212e-10 3.76877e-10 -1.45971e-10 -8.72899e-10 2.24404e-10 -8.31053e-11 -5.02114e-10 -7.73091 5.47488 -0.417314 2.2441e-10 -8.3107e-11 -5.02122e-10 -2.90554 0.965183 -0.102902 2.24405e-10 -8.31075e-11 -5.02121e-10 -10.2786 0.731801 -0.0259123 2.24421e-10 -8.31034e-11 -5.02129e-10 -2.22167 -0.733487 0.20892 -2.03217e-16 0.0 -3.88251e-19 5.36741 -19.6638 1.30059 0.00540051 22.5319 0.364977 -3.23928 -4.88631 -15.3667 2.03217e-16 0.0 3.88251e-19 4.9916 -26.8583 3.02462 0.19415 37.5541 -0.556322 1.27901 -2.70195 4.53927
38.1323 81.5151 -97.2361 2.1006 -13.3913 6.6212 4.73633 14.1065 -1.36333 1.10526 -0.476518 -0.21112 -3.07636 1.91704 3.04549 6.40012 -33.8766 9.22616 -0.0 0.0 0.0 -0.0 0.0 0.0 -2.68245e-14 -9.88378e-14 -1.17448e-13 -13.3126 21.7053 -18.5435 -8.70904 -3.6425 15.1459 -0.359635 -18.9293 -2.73723 1.4145e-10 1.87248e-10 -1.2071e-09 2.62948e-10 3.29872e-10 -2.08342e-09 1.41458e-10 1.87245e-10 -1.20712e-09 7.73091 5.47488 0.417314 1.41452e-10 1.87242e-10 -1.20711e-09 2.90554 0.965183 0.102902 1.41461e-10 1.87243e-10 -1.20711e-09 10.2786 0.731801 0.0259123 1.41447e-10 1.87241e-10 -1.20711e-09 2.22167 -0.733487 -0.20892 -2.68661e-14 -9.88527e-14 -1.17698e-13 -1.60581 5.91246 33.1015 8.97118 -3.80494 -15.6089 0.41705 20.2962 -2.94822 3.51484e-10 -1.04601e-10 -6.61279e-10 5.93094e-10 -1.84098e-10 -1.15088e-09 3.51475e-10 -1.04604e-10 -6.61273e-10 -7.73091 5.47488 -0.417314 3.51481e-10 -1.04607e-10 -6.61282e-10 -2.90554 0.965183 -0.102902 3.51475e-10 -1.04607e-10 -6.6128e-10 -10.2786 0.731801 -0.0259123 3.51494e-10 -1.04603e-10 -6.61291e-10 -2.22167 -0.733487 0.20892 -2.03217e-16 0.0 -3.88251e-19 7.95952 -27.3471 2.01957 -0.120204 33.0009 0.616258 -5.97005 -8.19744 -22.6144 2.03217e-16 0.0 3.88251e-19 8.53786 -37.5446 4.94189 0.707106 54.3688 -1.13265 1.95222 -5.14847 6.68133
38.1602 81.5005 -97.2026 2.3254 -13.3634 6.6753 5.87959 17.2379 -1.63925 1.34414 -0.542711 -0.244741 -3.82064 2.38403 3.70031 9.7749 -41.3074 12.44 -0.0 0.0 0.0 -0.0 0.0 0.0 -1.67103e-14 -1.14491e-13 -1.39795e-13 -14.4738 25.421 -23.601 -10.3241 -4.34071 18.4106 -0.689988 -22.9069 -3.4046 8.57219e-11 7.19219e-11 -1.53628e-09 1.71935e-10 1.30775e-10 -2.65345e-09 8.57291e-11 7.19191e-11 -1.5363e-09 7.73091 5.47488 0.417314 8.57238e-11 7.19143e-11 -1.53629e-09 2.90554 0.965183 0.102902 8.57328e-11 7.19155e-11 -1.53629e-09 10.2786 0.731801 0.0259123 8.57191e-11 7.19135e-11 -1.53628e-09 2.22167 -0.733487 -0.20892 -1.67362e-14 -1.14509e-13 -1.40044e-13 -2.26678 6.15448 40.4836 10.65 -4.54589 -19.0263 0.833639 25.0044 -3.75834 5.19187e-10 -5.92378e-11 -5.13959e-10 8.8652e-10 -1.06005e-10 -9.00398e-10 5.19178e-10 -5.92414e-11 -5.13952e-10 -7.73091 5.47488 -0.417314 5.19184e-10 -5.92438e-11 -5.13962e-10 -2.90554 0.965183 -0.102902 5.19178e-10 -5.9244e-11 -5.13959e-10 -10.2786 0.731801 -0.0259123 5.19198e-10 -5.9241e-11 -5.13971e-10 -2.22167 -0.733487 0.20892 -2.03217e-16 0.0 -3.88251e-19 9.86783 -32.7298 2.56942 -0.280262 40.328 0.84709 -8.40605 -10.2777 -27.7474 2.03217e-16 0.0 3.88251e-19 11.5926 -45.0888 6.77836 1.56046 65.985 -1.99418 2.51683 -6.80314 8.16815
38.1657 81.4869 -97.1619 2.4501 -13.3577 6.7354 6.30562 18.5342 -1.64353 1.42012 -0.499193 -0.231461 -4.23321 2.68523 3.91793 11.5648 -44.6576 14.0256 -0.0 0.0 0.0 -0.0 0.0 0.0 2.87503e-14 -1.18764e-13 -1.49598e-13 -15.2866 26.133 -26.0784 -10.8633 -4.55936 19.5541 -0.829537 -24.2237 -3.63979 -2.12436e-10 -4.54836e-10 -2.0153e-09 -3.35484e-10 -7.82359e-10 -3.48704e-09 -2.12429e-10 -4.54838e-10 -2.01531e-09 7.73091 5.47488 0.417314 -2.12434e-10 -4.54843e-10 -2.0153e-09 2.90554 0.965183 0.102902 -2.12425e-10 -4.54843e-10 -2.0153e-09 10.2786 0.731801 0.0259123 -2.12439e-10 -4.54844e-10 -2.0153e-09 2.22167 -0.733487 -0.20892 2.87343e-14 -1.18784e-13 -1.49864e-13 -1.47228 5.47722 43.4578 11.268 -4.81398 -20.3393 1.07797 27.3216 -4.1844 8.66419e-10 1.45861e-10 3.51449e-10 1.50725e-09 2.49169e-10 5.85928e-10 8.66411e-10 1.4586e-10 3.51455e-10 -7.73091 5.47488 -0.417314 8.66417e-10 1.45857e-10 3.51447e-10 -2.90554 0.965183 -0.102902 8.66409e-10 1.45858e-10 3.51449e-10 -10.2786 0.731801 -0.0259123 8.6643e-10 1.45859e-10 3.51437e-10 -2.22167 -0.733487 0.20892 -2.03217e-16 0.0 -3.88251e-19 10.5636 -34.8986 2.73141 -0.366661 43.2702 0.967048 -9.53898 -11.1507 -29.732 2.03217e-16 0.0 3.88251e-19 12.9403 -48.3092 7.75065 2.1566 70.3564 -2.58685 2.73556 -7.36419 8.72582
